<svg xmlns="http://www.w3.org/2000/svg" width="104" height="104" viewBox="0 0 104 104">
  <path fill="#5D8009" fill-rule="evenodd" d="M74.6892861,48.8203277 L74.8311602,48.8394809 L86.19739,50.8436538 C86.6295994,50.9121938 86.9907741,51.2024642 87.1542984,51.6018388 L87.1972996,51.7248117 L88.4222173,55.9733363 C88.529299,56.3492967 88.459263,56.7500892 88.2351684,57.0620311 L88.1439565,57.1746224 L88.143589,57.1767064 L84.0123894,61.7526586 C92.0921219,65.635246 96.9639088,74.5698004 95.3293425,83.8398866 C93.3626711,94.9934341 82.7092805,102.473611 71.5798583,100.511194 C60.4504255,98.5487746 52.9975087,87.878163 54.9645563,76.7224818 C56.5767312,67.5793831 64.0249017,60.9076525 72.7870753,59.8795974 L73.1529142,59.8400362 L70.8355575,54.1291745 C70.68946,53.7692143 70.7173769,53.3635676 70.9059771,53.0305645 L70.9842082,52.9093247 L73.5901788,49.3255092 C73.8466169,48.9763063 74.2639289,48.7876993 74.6892861,48.8203277 Z M57.4594096,77.1623407 C55.7359621,86.9364968 62.2676221,96.2907797 72.0208998,98.0105457 C81.7741775,99.7303117 91.1112834,93.1741204 92.835107,83.3978306 C94.5589307,73.6215408 88.0268945,64.2693916 78.2736168,62.5496256 C68.5203391,60.8298596 59.1832332,67.3860509 57.4594096,77.1623407 Z M77.7339619,65.621553 C85.7971256,67.0433064 91.1979936,74.7759218 89.7725096,82.8602434 C88.3474018,90.9424315 80.6275357,96.3615075 72.564372,94.9397542 C64.5012084,93.5180009 59.1003404,85.7853855 60.5254482,77.7031974 C61.9509322,69.6188757 69.6707983,64.1997997 77.7339619,65.621553 Z M68.0919522,70.1752513 C65.4159616,72.0535161 63.5905837,74.9178092 63.0197688,78.1429034 C62.4513998,81.366284 63.1825624,84.6833441 65.0564375,87.366238 C66.9283818,90.0467015 69.7873195,91.8720542 73.0052413,92.4394606 C76.223163,93.006867 79.5337896,92.26932 82.2098178,90.3908417 C84.887937,88.5129522 86.7098576,85.6437046 87.2782266,82.4203241 C87.8469718,79.1948099 87.1158092,75.8777498 85.241934,73.1948559 C83.3699897,70.5143924 80.5109989,68.6890303 77.2931303,68.1216333 C74.0764783,67.5588507 70.7679804,68.2967731 68.0919522,70.1752513 Z M33.4272042,3.9110031 L59.3614982,13.3503142 C60.0315625,13.5941976 60.5154584,14.3405953 60.2117321,15.1750765 L56.5969596,33.9561023 C58.9373965,38.9791214 59.8478582,44.8081039 58.734683,50.4703247 L61.7456143,51.566214 C62.5824585,51.8708004 63.0085224,52.7851613 62.7655435,53.4527404 L60.9379466,58.4740217 C60.6331773,59.3113685 59.7190722,59.7379812 58.8821986,59.4333841 L55.8712673,58.3374947 C53.0842964,63.3908373 48.6401518,67.2705689 43.6791332,69.4475386 L34.3154848,86.3244313 C34.0714549,86.994898 33.2191671,87.2516694 32.5519886,87.0088363 L6.61769463,77.5695252 C5.94763027,77.3256417 5.46373436,76.579244 5.70670523,75.9116871 L9.38207239,56.964179 C6.34273641,50.7385079 5.75321069,43.5077804 8.31185712,36.4779571 C10.8097481,29.6150581 15.9695535,24.2881289 22.2999792,21.4725218 L31.663708,4.59540809 C31.9077379,3.92494137 32.7600257,3.66817001 33.4272042,3.9110031 Z M11.7476888,60.8606565 L8.82022934,75.1517901 L32.243328,83.6771008 L39.3534604,70.9067307 C34.3637975,72.1245005 29.1305887,71.9273617 23.9425519,70.0390707 C19.0861637,68.2714899 14.8973642,65.1476886 12.0282597,61.2506172 L11.7476888,60.8606565 Z M11.1509581,37.5113054 C6.76374956,49.5650619 12.8744192,62.9762408 24.9209418,67.3608164 C36.9674645,71.7453921 50.4354309,65.460254 54.8226395,53.4064975 C59.2098481,41.352741 52.8722015,28.0474862 40.8256789,23.6629105 C28.7791563,19.2783348 15.5381667,25.4575489 11.1509581,37.5113054 Z M39.9114783,26.1746561 C50.6210526,30.0726224 56.2125678,41.7765388 52.3122609,52.4925441 C48.4119539,63.2085495 36.5448777,68.7465951 25.8353033,64.8486288 C15.2957924,61.0125606 9.76119068,49.1408221 13.6614977,38.4248168 C17.5618046,27.7088114 29.3682863,22.3372481 39.9114783,26.1746561 Z M16.5063815,39.4596859 C13.1549113,48.6677746 17.8357853,58.7138127 26.8712294,62.0024454 C36.0737921,65.3519043 46.1778811,60.4977815 49.4684886,51.4569117 C52.7590961,42.4160418 48.0782221,32.3700037 38.8756595,29.0205449 C29.8402153,25.7319121 19.796989,30.418816 16.5063815,39.4596859 Z M74.085127,55.36793 L75.8563105,59.7407123 C77.5847016,59.8057128 79.2962392,60.0852643 80.9549141,60.5698925 L81.5057985,60.7390177 L84.6659007,57.2336059 L74.085127,55.36793 Z M57.8656883,53.3769324 C57.9045213,53.7150734 57.8200391,54.0107339 57.718599,54.2985166 L57.6669581,54.4419117 C57.5454633,54.7757159 57.4229282,55.1123784 57.0739101,55.552325 L58.5808482,56.1008055 L59.3726263,53.925413 L57.8656883,53.3769324 Z M75.1677201,51.4768376 L74.174679,52.8056348 L85.4578931,54.7951698 L84.9792151,53.2068689 L75.1677201,51.4768376 Z M37.5760536,37.2716952 L34.6508904,45.308515 L37.7221766,50.408504 C38.8635899,51.9612556 36.336278,53.6972565 35.25671,51.9747238 L31.8066097,46.3587829 C31.3640921,46.0087156 31.3805753,45.4444327 31.5627988,44.9437779 L34.7318727,36.236498 C35.4021668,34.3948803 38.2463476,35.4300774 37.5760536,37.2716952 Z M33.5633315,7.18052552 L26.6211153,20.0079482 L27.0852867,19.8915106 C31.7876872,18.7502416 37.0016445,19.0487638 41.86131,20.8175374 C47.0492731,22.7058016 51.1850093,25.9186799 54.2244719,30.0588123 L56.9864302,15.7058362 L33.5633315,7.18052552 Z"/>
</svg>
