<svg xmlns="http://www.w3.org/2000/svg" width="104" height="104" viewBox="0 0 104 104">
  <path fill="#5D8009" fill-rule="evenodd" d="M50.2033722,60.9689358 C57.633486,60.9689358 74.8779459,54.8353451 89.9767908,57.1743079 L89.9767908,57.1743079 C93.2472824,57.6784533 94.0126715,59.6193401 93.8270059,61.6095255 L93.8270059,61.6095255 L93.3609554,66.2077776 C93.1829625,67.0077142 92.690344,67.7013774 91.9969572,68.1297409 C91.6862698,70.7984603 91.2239829,73.4444714 90.6101643,76.0563228 C88.5528182,84.9383063 83.9562355,90.7003142 75.2756122,90.7003142 C66.1286183,90.7003142 58.7478769,85.2261399 55.6333401,76.4163573 C53.829743,71.3139599 52.7347227,69.5474617 50.203634,69.5474617 C47.6725454,69.5474617 46.5775251,71.3139599 44.773928,76.4163573 C41.6631741,85.226431 34.2822387,90.7003142 25.1355358,90.7003142 C16.4545245,90.7003142 11.8584269,84.9343275 9.80098372,76.0563228 C9.18336278,73.4444714 8.72110494,70.7984603 8.4141908,68.1297409 C7.71697259,67.7013871 7.22439291,67.0076365 7.04631267,66.2077776 L7.04631267,66.2077776 L6.58026218,61.6095255 C6.39460633,59.6193401 7.16002445,57.6784824 10.4299535,57.1743079 C25.5287984,54.8354422 42.7732583,60.9689358 50.2033722,60.9689358 Z M17.8001511,60.1383333 C10.7867251,60.1383333 11.446007,64.3385095 11.6506165,66.1050077 C11.6885042,66.4424309 11.8741698,67.7237073 11.8741698,67.7237073 C12.1735083,70.2634548 12.6168223,72.7843757 13.2041213,75.271137 C15.6860316,85.9613478 21.1952766,87.2046799 25.132073,87.2046799 C32.7287339,87.2046799 38.8517878,82.7394756 41.4851133,75.2526986 L41.4851133,75.2526986 C44.1150729,67.7767906 42.2242738,64.4446663 38.6209596,63.53867 C32.4489212,61.9768384 25.1432569,60.1383333 17.8001511,60.1383333 Z M82.6035474,60.1357189 C75.2636426,60.1357189 67.9550683,61.974224 61.7827389,63.5360557 C58.1831883,64.4453612 56.2887227,67.7777669 58.9220481,75.2531897 C61.5584775,82.7357938 67.6819195,87.205171 75.2750884,87.205171 C79.2119818,87.205171 84.7212268,85.9659147 87.2030401,75.2716281 C87.7903488,72.7848668 88.2336628,70.2640429 88.5329916,67.7241984 L88.5329916,67.7241984 C88.5329916,67.7204078 88.7186543,66.4428773 88.7565449,66.1017082 L88.7565449,66.1017082 C88.9577497,64.3358951 89.6170511,60.1357189 82.6035474,60.1357189 Z M90.3667681,26.54283 L95.6865744,26.54283 C98.1910854,26.54283 98.1910854,30.6141314 95.6865744,30.6141314 L91.6171806,30.6141314 C91.9316704,31.5542484 91.9316704,32.4905808 91.9316704,33.7453641 C91.9316704,57.225243 56.8869469,56.9108193 57.5125896,32.8052471 C52.8180381,26.8574963 45.3081912,26.8574963 40.6173256,32.8052471 C41.2425125,57.2216038 6.19824489,57.2216038 6.19824489,33.7453641 C6.19824489,32.4943655 6.19824489,31.5542969 6.51273464,30.6141314 L2.44334085,30.6141314 C-0.0611700998,30.6141314 -0.0611700998,26.54283 2.44334085,26.54283 L7.76349633,26.54283 C14.3336181,12.1414495 35.6128433,14.0221688 39.6780661,27.7938286 C44.6834021,22.7861464 53.4470564,22.7861464 58.4521983,27.7938286 C62.5215921,14.0183841 83.7970343,12.1415465 90.3667681,26.54283 Z M10.2639139,27.4790653 C9.32423733,29.3555147 9.63872708,29.0446817 9.01350143,30.9211311 L9.01381183,30.9249644 C9.01381183,31.2383367 8.97886852,31.5512886 8.93227745,31.8640984 L8.78085646,32.8023807 C8.73426538,33.1151851 8.69932208,33.4281262 8.69932208,33.7414824 C8.69932208,53.4647747 38.4246273,53.776287 38.1132609,32.8013653 C37.7987711,17.7750192 16.5232513,14.0184326 10.2639139,27.4790653 Z M60.9575823,28.4230156 C54.0728931,51.9028945 89.1174226,55.9709934 89.1174226,33.7453156 L89.1174226,30.9249644 C88.4922358,29.048515 88.8029329,29.359348 87.8670101,27.4828986 C82.5472038,15.9016266 64.3981324,16.8381046 60.9575823,28.4230156 Z" transform="rotate(40 49.065 53.635)"/>
</svg>
