<svg xmlns="http://www.w3.org/2000/svg" width="104" height="104" viewBox="0 0 104 104">
  <path fill="#5D8009" fill-rule="evenodd" d="M98.7183394,61.8609883 L98.7156351,61.8627275 C101.587493,67.0152991 100.773643,73.5652616 96.5973931,78.9651356 L94.0923724,77.0379324 C97.4885175,72.6503343 98.2002873,67.4183351 95.9534956,63.386957 C92.5874974,57.3423191 83.6810251,55.8208748 76.1019057,59.9992229 C68.5269809,64.1749913 65.1012629,72.4919139 68.4708571,78.5370917 L65.7093135,80.0594254 C65.2171814,79.1737807 64.8311535,78.2341163 64.5550333,77.2607304 C63.3831905,78.9606668 61.7977737,80.5631362 59.527575,82.0191088 L60.761634,84.2304578 C66.4659368,81.5696793 70.925171,82.4626691 75.3433268,83.7295549 C75.8217764,83.8629101 76.3136965,83.9694256 76.8147672,84.0574548 L76.8170573,84.0561927 C77.5273653,81.6731807 79.1536492,79.6659047 81.3427593,78.4725838 C83.5318693,77.279263 86.1067701,76.9928708 88.5101744,77.68012 C93.5389733,79.1221049 96.4642029,84.364797 95.0278658,89.3738996 C93.5920755,94.3810957 88.3327267,97.2789609 83.3037909,95.8369367 C79.2920161,94.6865788 76.6296126,91.115791 76.4387622,87.1771995 C75.7737858,87.0690347 75.1177521,86.936568 74.4830681,86.7564961 C70.3483894,85.570896 66.7478248,84.8493143 61.9314279,87.164048 C61.9406582,88.3084419 61.3246399,89.3675726 60.3224629,89.9245515 L55.5069164,92.5791794 C54.1040149,93.3570171 52.4469629,93.5419976 50.9057697,93.0943572 C47.6948774,92.1697736 45.8345449,88.8347296 46.7457839,85.636149 C47.1830482,84.0978396 48.2183513,82.8000838 49.6251112,82.0291001 L54.4411784,79.3726565 C55.4472095,78.8225793 56.6773198,78.8624842 57.6482806,79.4767165 C62.1698736,76.6437749 63.4554975,73.2628614 64.6228989,69.1916492 L64.6389316,69.1962465 L64.6435074,69.1802885 C65.9888369,64.488567 69.4753086,60.0482709 74.5685849,57.2388595 C83.6678352,52.223935 94.5024357,54.29664 98.7183394,61.8609883 Z M79.8275788,85.013432 C78.87019,88.3522436 80.8196633,91.8471603 84.172272,92.8085054 C87.5249262,93.7698635 91.0301645,91.839011 91.9875403,88.5002448 C92.9444215,85.1632035 90.9954558,81.6665164 87.6428471,80.7051714 C84.2902385,79.7438263 80.7839394,81.6782063 79.8275788,85.013432 Z M55.9773485,82.1293244 L51.1618019,84.7839523 L51.1600201,84.7835052 C49.8331808,85.5850692 49.3815045,87.2881355 50.1363699,88.6425051 C50.8912489,89.9968786 52.5828638,90.5183916 53.9694938,89.8241498 L58.785561,87.1677062 L55.9773485,82.1293244 Z M35.3548139,8 C63.8343257,8 78.735489,43.0127293 58.2873943,63.6009766 C45.7036816,76.2709388 25.087991,76.2709388 12.5042783,63.6009766 C-7.94381644,43.0099051 6.87544237,8 35.3548139,8 Z M35.3549541,10.5016556 C9.11077817,10.5016556 -4.54968515,42.7615188 14.3262344,61.7668151 C25.9162931,73.4356067 44.8770625,73.4356067 56.4664199,61.7668151 L56.4664199,61.7668151 C75.3416382,42.7615188 61.5994807,10.5016556 35.3549541,10.5016556 Z M35.3526401,14.74873 C58.0359304,14.74873 69.2147131,42.2569161 53.8148293,58.344132 C43.8796919,68.7634937 27.1565724,68.846807 17.1393902,58.5096146 C8.53008313,49.6755902 7.37163825,35.7531057 14.4906046,25.667265 C15.4848897,24.2496696 17.5557852,25.7500134 16.56143,27.0848605 C10.1848641,36.1723547 11.1792194,48.6742784 18.8788106,56.6779949 C27.9051438,66.0993138 43.0553869,66.0138825 51.996169,56.5952536 C65.9059224,42.0055573 55.8038904,17.3328446 35.3557956,17.3328446 C32.0442,17.3328446 28.8146493,18.0002681 25.8343885,19.4178635 C24.2620521,20.0852871 23.2677179,17.8347713 24.7578482,17.0845994 C28.0690932,15.5842556 31.7125145,14.7513353 35.3556554,14.7513353 L35.3556554,14.7513353 Z M34.1116595,58.4327334 C34.1116595,56.7668929 36.6783301,56.7668929 36.6783301,58.4327334 L36.6783301,58.4327334 L36.6783301,60.4322505 C36.6783301,62.098091 34.1116595,62.098091 34.1116595,60.4322505 L34.1116595,60.4322505 Z M41.1487212,22.5869286 C41.5623113,22.1704472 42.9702636,22.4214459 43.0524417,23.1716178 L43.0524417,23.1716178 L43.0497279,23.1691114 L42.6361098,43.3407927 C42.6361098,43.5062682 42.5539317,43.6745044 42.4717536,43.8399871 L42.4717536,43.8399871 L29.6384003,58.5094663 C28.8111501,59.3451402 27.3210267,58.7603944 27.4032048,57.5937977 L27.4032048,57.5937977 L27.9839209,38.0893281 C27.9839209,37.7556022 28.1510118,37.5073853 28.3153679,37.2564078 L28.3153679,37.2564078 Z M30.4686168,39.9260455 L30.0549987,54.1796647 L30.0548865,54.1818535 L39.3273542,43.5114083 L30.4686168,39.9260455 Z M17.5526296,39.2593986 C19.2071302,39.2593986 19.2071302,41.8436614 17.5526296,41.8436614 L17.5526296,41.8436614 L15.5667241,41.8436614 C13.9122236,41.8436614 13.9122236,39.2593986 15.5667241,39.2593986 L15.5667241,39.2593986 Z M55.1403792,39.2593986 C56.7948797,39.2593986 56.7948797,41.8436614 55.1403792,41.8436614 L55.1403792,41.8436614 L53.1544737,41.8436614 C51.4999732,41.8436614 51.4999732,39.2593986 53.1544737,39.2593986 L53.1544737,39.2593986 Z M40.7355519,26.9228304 L31.3810394,37.5932756 L40.3218216,41.0931364 L40.7355519,26.9228304 Z M34.1116595,20.5873551 C34.1116595,18.9215145 36.6783301,18.9215145 36.6783301,20.5873551 L36.6783301,20.5873551 L36.6783301,22.5868721 C36.6783301,24.2527126 34.1116595,24.2527126 34.1116595,22.5868721 L34.1116595,22.5868721 Z M19.957665,20.3367023 C21.1985474,20.3367023 21.5299874,21.8370391 20.8671003,22.5044697 C20.3712551,23.089159 19.4591129,23.0064247 19.0454948,22.4217284 C18.3004297,21.5860545 18.8783899,20.3367023 19.9549302,20.3367023 L19.9549302,20.3367023 Z"/>
</svg>
