<svg xmlns="http://www.w3.org/2000/svg" width="104" height="104" viewBox="0 0 104 104">
  <path fill="#5D8009" fill-rule="evenodd" d="M30.2249239,12.4070122 L39.2288037,23.6260807 L43.7658871,29.3307315 L45.8899389,32.0401153 L46.8992928,33.3593786 L47.1876848,33.7501039 C48.0077635,34.8837939 48.2884343,36.1789045 48.2822903,37.8813081 L48.2620577,38.681467 L48.1872579,40.0455268 C48.0637502,42.2789229 48.2087168,43.4603439 48.8695615,44.4754879 L48.9915866,44.6530852 L49.5813634,45.4353195 L51.1269913,47.3805122 L55.8250293,53.1307896 L70.4851185,70.9285586 L74.0190572,75.2731265 L75.6551244,77.3414184 L76.2928637,78.1901916 C79.5157354,82.6455414 79.2168533,87.3194842 75.4944445,90.222358 L75.2468259,90.4091444 C71.3756145,93.2340749 66.8436797,92.2301467 63.5653967,87.9183702 L62.7467571,86.7610123 L61.2938535,84.559061 L58.2720067,79.8408054 L45.9494236,60.3372933 L41.9562297,54.0726716 L40.5919419,51.99515 L40.0334913,51.1900561 L39.9030313,51.0186139 C39.1905298,50.1292466 38.1973462,49.6308752 36.2880128,49.0982908 L34.6043718,48.6478596 L33.840445,48.4199236 C32.3418111,47.9368782 31.2521387,47.3261236 30.4475164,46.3336417 L30.266838,46.0977156 L29.9859762,45.7014953 L29.0486664,44.3296594 L27.139505,41.4634642 L23.1397775,35.3666899 L15.2987352,23.2990665 C14.7429534,22.4409643 14.9849961,21.2928097 15.8393526,20.7345914 C16.6434529,20.2092094 17.703364,20.3936491 18.288636,21.1325712 L18.3926339,21.277579 L22.1217629,27.0279312 L27.0013441,34.5201859 L31.0501299,40.6745253 L32.7229266,43.1617176 L33.2528698,43.9187253 C33.5201474,44.2882142 34.0317922,44.5882629 34.9682759,44.8901139 L35.3724642,45.0134557 L35.8541982,45.1477781 L37.3096988,45.5358158 C39.943713,46.2729441 41.5277057,47.0829186 42.8267136,48.7538676 L43.019523,49.0110658 L43.2784483,49.3765592 L44.2259229,50.7855809 L46.4158308,54.1787794 L60.8898862,77.069115 L64.5712055,82.8199135 L65.7568164,84.6147208 L66.3394245,85.4534926 C68.4364164,88.3524081 70.7378394,88.9754016 72.8772618,87.5496783 L73.0773468,87.4100216 C75.2728157,85.807927 75.4693549,83.3586885 73.306832,80.3691819 L72.6926303,79.5534648 L71.359492,77.8663124 L67.0516212,72.5727259 L49.8493728,51.6732285 L47.3130543,48.5328154 L46.2716301,47.1923514 L46.0055548,46.8320755 C44.6695117,44.9851079 44.3574925,43.1850487 44.4792553,40.3039914 L44.5615948,38.793749 L44.5913763,37.8678704 C44.5949414,36.8800397 44.4689306,36.2985831 44.201653,35.9290942 L43.6486,35.1889504 L41.8103872,32.8224667 L37.233955,27.0531656 L31.6473736,20.0768286 L27.3546995,14.7377109 C26.7139042,13.9416455 26.8369585,12.7745624 27.629549,12.1309577 C28.4221396,11.487353 29.5841285,11.6109468 30.2249239,12.4070122 Z M43.0981894,62.7443327 C43.2345788,62.9515377 43.6830142,63.6600581 44.4434955,64.8698938 C44.5847021,65.0945367 44.7477508,65.7888937 44.3929913,66.2499344 C44.156485,66.5572949 43.7802165,67.0371878 43.2641859,67.6896132 L42.0814293,69.1843088 L36.6159154,76.0086455 L35.4138226,77.5335728 L34.6516025,78.5247935 L34.1853573,79.1499114 L33.8016659,79.6844338 L33.5882655,79.9952523 C32.2388482,82.0046165 31.6658242,83.8400365 31.7282988,85.3567015 C31.7675818,86.3103555 32.0641992,87.0074832 32.345916,87.2691866 C33.0222492,87.7332822 33.4280384,88.011142 33.5632836,88.1027659 C33.8637384,88.3063137 34.6686098,88.3529556 35.6382675,88.0055709 C36.9780252,87.525596 38.3675589,86.4156176 39.6514156,84.6114726 L39.9918975,84.1128654 L40.325442,83.589993 L40.5755205,83.1823618 L40.9969098,82.4747964 L41.655003,81.3361123 L44.2561105,76.6784222 L46.2078055,73.1656814 C46.953408,71.8422783 47.3839627,71.0780677 47.4994694,70.8730496 C47.6727296,70.5655225 48.031576,70.5655225 48.2028866,70.8230648 C48.3046866,70.9761072 48.8142516,71.7820097 49.7315816,73.2407725 C49.8433837,73.4185631 49.941098,74.0612939 49.7926107,74.3289335 C49.6936191,74.5073599 48.2417802,77.1162492 45.4370939,82.1556015 L44.4796145,83.8372609 L43.844324,84.917567 L43.5636737,85.3797498 L43.1822232,85.9861671 L42.9507889,86.3380401 C39.5411497,91.4151998 34.5118404,93.2169749 31.4993371,91.1761074 C31.2962711,91.0385372 30.5547984,90.536215 30.3519307,90.398779 C27.3394274,88.3579116 27.1186998,82.9994169 30.528339,77.9222572 L30.7664691,77.5749204 L31.0360173,77.1954496 L31.5049058,76.5580352 L32.0590326,75.8278594 L32.4801155,75.2834792 L35.9580738,70.9171784 L38.5874545,67.6370538 L40.3642207,65.3963211 L41.480119,63.9731684 C42.1075008,63.1649032 42.4632399,62.7064029 42.5473365,62.5976676 C42.6734815,62.4345646 42.8556179,62.3758143 43.0981894,62.7443327 Z M83.3265572,11.5163464 C83.5296232,11.6539166 84.2707602,12.1560114 84.4739636,12.2936748 C90.118418,16.1175986 90.6929701,27.1711202 85.0103001,36.5696688 C80.7184115,43.6680087 73.7159694,49.0457178 65.7513992,50.3755882 L65.4208638,50.4261228 L65.006739,50.9110128 C64.173212,51.8983763 63.3236095,52.9705016 62.4570385,54.1256716 C62.2964509,54.3397405 61.6292806,54.3585276 61.4571599,54.1495799 L59.9433399,52.3118621 C59.8184376,52.1602356 59.8272479,51.4727317 59.9642312,51.2933877 C61.0308464,49.8969323 62.0777057,48.6163991 63.1077083,47.4536005 C63.4069417,47.1157877 63.8187956,46.8994815 64.2657457,46.8453978 C71.4362165,45.9777273 77.9260644,41.1443572 81.855529,34.6454291 C86.6233829,26.7598917 86.163362,17.9097785 82.4100171,15.3670163 C82.2069511,15.2294461 81.4654784,14.7271238 81.2626107,14.5896879 C77.5092658,12.0469257 69.1670743,14.9338426 63.6737147,22.3278748 C59.1463188,28.421725 57.1155971,36.2759999 59.0007243,43.2785268 C59.1182281,43.7150086 59.0728311,44.1795768 58.8730785,44.5847843 C58.4003171,45.5438028 57.8791589,46.5310933 57.3105008,47.5473128 C57.1408574,47.8504737 56.4147727,48.0070751 56.2277028,47.7783442 L54.6247762,45.8184414 C54.5136841,45.6826088 54.4589394,45.0688528 54.5467486,44.9066976 L54.9700248,44.1114838 L55.2619078,43.5437793 L55.1853403,43.2174464 C53.4675843,35.4743414 55.6707567,27.1375491 60.3967892,20.5475508 L60.7155803,20.1108311 C67.26296,11.2980936 77.6821028,7.69242248 83.3265572,11.5163464 Z M24.1994617,16.7014166 L24.310764,16.840847 L38.7739579,36.8349993 C39.373043,37.6631842 39.1902514,38.8223444 38.3656815,39.4240559 C37.5896157,39.9903727 36.5216475,39.8610564 35.8992284,39.15342 L35.7879261,39.0139896 L21.3247322,19.0198373 C20.7256471,18.1916524 20.9084387,17.0324923 21.7330086,16.4307807 C22.5090744,15.8644639 23.5770426,15.9937802 24.1994617,16.7014166 Z"/>
</svg>
