<svg xmlns="http://www.w3.org/2000/svg" width="104" height="104" viewBox="0 0 104 104">
  <path fill="#5D8009" fill-rule="evenodd" d="M70.5384156,41.7449926 C71.2041413,41.4278282 71.9334853,41.1253377 73.230153,41.2221441 C73.5582116,41.2294892 73.8713044,41.3017724 74.2479625,41.3887308 L74.2479625,41.3887308 L85.1395446,43.6349309 C86.1423633,43.8664498 87.0245215,44.609351 87.5012909,45.1219016 C90.2564315,46.9022609 94.460426,49.8273669 95.4847623,50.5347263 C97.4062101,51.9200461 98.6805575,53.8320904 99.1474163,56.094014 C99.2324749,56.584578 99.7241305,58.4500027 100.372781,60.4832599 C102.858887,69.9006139 103.215242,71.5691117 102.887333,72.5114135 L102.857129,72.5916935 L102.857129,72.5916935 L102.823688,72.6693388 L102.823688,72.6693388 L102.78722,72.7453757 C102.755627,72.8083545 102.721101,72.8707267 102.684192,72.9351645 L102.638792,73.0136522 L102.638792,73.0136522 L102.615301,73.0539604 C101.54635,74.8274508 94.8351029,77.050299 90.4521543,76.0384156 L90.4521543,76.0384156 L90.3274156,76.0096174 C89.9532371,75.9232315 89.5909691,75.7738286 89.322298,75.509248 C88.978494,76.708306 88.6538806,78.114361 88.3040582,79.919729 C87.8779323,82.0444631 87.3918256,85.2993653 86.93268,88.4263455 C86.3013696,92.5891739 85.7264636,96.228708 85.308857,97.7474402 C84.3548845,101.296793 79.9112009,100.270888 68.1242364,97.618046 L68.1242364,97.618046 L65.370242,96.9822363 L62.8657,96.4040172 C55.3523244,94.6694177 51.7965447,93.5117885 50.5660065,91.4099856 C50.0875013,90.6260882 49.9664384,89.7221464 50.2364398,88.8427626 C50.2514365,88.7778048 50.4157905,88.3448896 50.626986,87.7202222 C53.9026046,78.1070487 55.4445895,71.9970793 56.126895,68.1824676 C55.9871655,68.2186016 55.7988364,68.1751224 55.6740977,68.1463242 C54.4825619,67.8712365 45.7333573,62.3500483 46.5895856,58.6413161 C47.0173455,56.7884845 56.4276043,44.884867 59.9519031,43.6124445 C61.8172617,42.9645378 65.086516,42.5065996 68.2185519,42.085402 C69.0432191,41.9390651 69.7898529,41.840493 70.5384156,41.7449926 Z M71.7011281,44.9314007 L71.4688591,45.0793083 C71.3928711,45.1298132 71.2539441,45.1631744 71.1755172,45.2131162 C71.1606021,45.2777209 71.0970903,45.263058 71.0970903,45.263058 C71.0360175,45.2489582 71.0211024,45.3135629 70.9575906,45.2989001 C70.9575906,45.2989001 70.8816026,45.3494049 70.8180909,45.3347421 C70.8031757,45.3993468 70.739664,45.3846839 70.739664,45.3846839 C70.4756047,45.3917691 70.1336663,45.4463095 69.7917278,45.5008498 C69.730655,45.4867501 69.6060705,45.4579875 69.5276436,45.5079293 C69.4665707,45.4938295 69.4516556,45.5584342 69.3881438,45.5437713 C68.9820959,45.5861239 68.5790971,45.6265674 68.1736469,45.6664449 C67.4891914,45.778032 66.819657,45.8249889 66.1357801,45.9340697 C65.9944142,45.9668678 65.8698297,45.9381051 65.7303299,45.9739472 C65.5273185,45.9951264 65.3883915,46.0284875 65.18538,46.0496668 C64.9704651,46.1335328 64.7680264,46.1522311 64.5650149,46.1734103 C64.4260879,46.2067715 64.3625762,46.1921086 64.2230765,46.2279507 C64.0206378,46.246649 63.7422111,46.3158522 63.5391996,46.3370314 C63.4002726,46.3703926 63.3367609,46.3557297 63.1972612,46.3915718 C63.043419,46.4895376 62.8409803,46.5082359 62.6379688,46.5294151 C62.4960302,46.5646941 62.3571032,46.5980552 62.2176035,46.6338973 C62.0786765,46.6672584 62.0151648,46.6525956 61.8756651,46.6884376 C61.6732264,46.707136 61.5193842,46.8051018 61.3163728,46.826281 C61.3014576,46.8908856 61.2379459,46.8762228 61.2379459,46.8762228 C60.9595192,46.945426 60.8200195,46.981268 60.6026656,47.064571 C59.3146738,47.5055861 56.2596653,50.7523777 53.6244626,53.8972246 C51.6175491,56.3155506 49.8261101,58.6474729 49.341729,59.6087623 C49.4221225,59.8288806 49.6757155,60.1570064 49.9298812,60.4826513 C50.5135934,61.0858958 51.3196935,61.8739657 52.2036699,62.6145931 C53.4807206,63.6475268 54.7726982,64.615805 55.5886889,65.0711575 C55.6179465,64.944429 55.6939345,64.8939241 55.7867038,64.7818586 C55.8645579,64.7343976 55.8645579,64.7343976 55.8794731,64.669793 C55.9698035,64.5571643 55.9847186,64.4925597 56.0774879,64.3804941 C56.0924031,64.3158894 56.1702572,64.2684285 56.1851724,64.2038238 L56.1851724,64.2038238 L56.2779417,64.0917582 C56.8601166,63.286516 57.4416819,62.4837997 58.121135,62.1041184 C58.2749771,62.0061526 58.4779886,61.9849734 58.6660849,62.0283988 L58.6660849,62.0283988 L58.8541812,62.0718243 C59.0884351,62.1939542 59.2934316,62.4428125 59.2984282,62.7109322 C59.3539975,63.3283951 59.3952332,64.0079436 59.3437026,64.7995449 L59.3437026,64.7995449 L59.3287874,64.8641496 C59.2995299,64.990878 59.3188689,65.1968739 59.2896113,65.3236023 C59.259781,65.4528117 59.2940352,65.5942029 59.2647776,65.7209314 C59.2206049,65.9122644 59.2256015,66.1803841 59.1814288,66.3717172 C59.1690713,66.7038785 59.08072,67.0865701 59.0708014,67.4192945 C59.0266287,67.6106276 59.0608829,67.7520188 59.0167102,67.9433519 C59.0217097,68.2114589 58.9626218,68.4673966 58.9041067,68.7208535 L58.9041067,68.7208535 L58.7865037,69.2302481 C58.7909246,69.5008614 58.7174943,69.8189229 58.6589792,70.0723798 L58.6589792,70.0723798 L58.5413762,70.5817744 L58.3360064,71.4713288 L58.2184034,71.9807234 L57.9981125,72.934908 L57.8805095,73.4443026 L57.630964,74.5252028 L57.5575337,74.8432643 C57.3664975,75.6707332 57.1754613,76.498202 56.9065797,77.3730936 L56.9065797,77.3730936 L56.8038918,77.8178836 C56.7819509,77.9129203 56.7569359,78.0031619 56.7303748,78.0910453 L56.5646787,78.6095423 L56.5646787,78.6095423 L56.4908346,78.884121 C56.4317438,79.1400714 56.2948018,79.4434701 56.2362866,79.696927 C56.1628564,80.0149885 56.0109933,80.3830173 55.937563,80.7010788 C55.8492117,81.0837704 55.7122697,81.3871691 55.6388394,81.7052306 C55.5654091,82.0232921 55.4284671,82.3266908 55.3550368,82.6447523 C55.2056126,83.0133441 55.1178429,83.3935167 54.9659857,83.76152 C54.9074764,84.0149514 54.7705344,84.3183501 54.6971041,84.6364116 C54.5333464,85.0670891 54.4306585,85.511879 54.2495438,86.0066108 C54.1910316,86.2600549 54.068432,86.5013298 54.0099168,86.7547867 C53.7721414,87.5060701 53.4714416,88.2401463 53.2318147,88.9883222 C53.0531388,89.483617 52.9161968,89.7870157 52.8869392,89.9137441 C53.3168188,90.61497 55.446497,91.3762242 57.7941144,92.0516975 C59.2672259,92.5252751 60.8306303,92.8862154 62.017817,93.1602991 L62.017817,93.1602991 L63.1439684,93.4202916 L65.6454154,93.9977962 L68.3960065,94.6328202 L70.3966638,95.0947083 C70.720587,95.1694919 71.047851,95.2444262 71.3768585,95.3190149 L72.0367247,95.4675841 C76.334812,96.4283751 80.7475681,97.2747936 81.7655035,96.9159136 C82.1519616,95.5317419 82.6197354,92.3576686 83.1197902,89.0548981 C83.1932146,88.736862 83.188218,88.4687423 83.2616483,88.1506808 C83.7175568,85.0391289 84.2176115,81.7363584 84.6531908,79.5598951 L84.6531908,79.5598951 L84.844227,78.7324263 L84.8591422,78.6678216 L85.0352574,77.9049829 L85.0501725,77.8403782 C85.284797,76.8241081 85.4907542,75.9320091 85.7596358,75.0571175 L85.7596358,75.0571175 L85.774551,74.9925129 C85.8816627,74.8183235 85.9258354,74.6269904 85.9700081,74.4356573 L85.9700081,74.4356573 L85.9849233,74.3710527 C86.029096,74.1797196 86.1218653,74.067654 86.166038,73.8763209 L86.166038,73.8763209 L86.1809532,73.8117163 C86.3328162,73.4436875 86.4816588,73.0776147 86.633516,72.7096114 L86.633516,72.7096114 L86.6627736,72.5828829 C86.6920311,72.4561545 86.7997156,72.2794842 86.8289732,72.1527558 C86.9074001,72.102814 86.9217425,72.0406902 86.9366576,71.9760856 C86.966488,71.8468763 86.9957455,71.7201478 87.0885148,71.6080822 C87.1669417,71.5581404 87.1812841,71.4960167 87.1961993,71.431412 C87.3014448,71.2541787 87.3307024,71.1274503 87.4234717,71.0153847 C87.5013258,70.9679237 87.5013258,70.9679237 87.516241,70.9033191 L87.516241,70.9033191 L87.5311562,70.8387144 C87.7876803,70.2959841 88.1082977,69.7653976 88.4894122,69.2514044 C88.6755486,69.0247981 88.9832454,68.8288694 89.2959137,68.9010546 C89.6085821,68.9732398 89.8914326,69.1746371 89.9575021,69.4568566 L89.9575021,69.4568566 L90.1868341,70.1798306 C90.2990612,70.5407545 90.4137273,70.9022414 90.5283933,71.2637284 C90.611244,71.4843872 90.6773135,71.7666066 90.7577253,71.9867023 C90.803883,72.0654068 90.7895406,72.1275305 90.8381372,72.206798 C90.9671397,72.5061867 91.0475515,72.7262824 91.113621,73.0085018 C91.0992786,73.0706256 91.1627903,73.0852885 91.1484106,73.1496281 C94.1165049,73.70133 98.1334807,72.2836223 99.1461499,71.5752214 C98.9165454,70.385195 98.0529237,67.0232208 97.1320651,63.5041863 L96.9340724,62.7484378 C96.8348482,62.3700959 96.7354399,61.9916031 96.6365569,61.6154377 C96.3217759,60.4042524 96.0437535,59.3350232 95.8293425,58.5474191 C95.6486012,57.9037381 95.5637714,57.4130164 95.4977019,57.1307969 C95.2270966,55.7282659 94.399688,54.4641527 93.1563378,53.5751224 C92.418799,53.0698339 89.8542167,51.339241 87.5244448,49.7282532 C87.3998603,49.6994906 87.3537026,49.6207862 87.2901908,49.6061233 C87.2266791,49.5914605 87.1805214,49.5127561 87.1170097,49.4980932 C86.7849648,49.2199034 86.4404812,49.0068901 86.0935461,48.7933107 C86.0782779,48.7897858 86.067759,48.7831043 86.0595765,48.7748357 L86.0192182,48.7187352 L86.0192182,48.7187352 L85.9838767,48.6999435 C85.8106956,48.5919133 85.6369417,48.4863641 85.5272723,48.3929969 C85.4661994,48.3788971 85.35653,48.2855298 85.2930183,48.270867 C85.1803372,48.1794175 85.0557526,48.1506549 84.9460832,48.0572876 C84.8825715,48.0426248 84.8214987,48.028525 84.7729021,47.9492575 C84.7237328,47.8724709 84.6626599,47.8583711 84.6140633,47.7791036 C84.564894,47.702317 84.5038212,47.6882173 84.4552246,47.6089498 C84.3941518,47.59485 84.4090669,47.5302453 84.3455552,47.5155825 L84.3455552,47.5155825 L84.2820435,47.5009196 C82.663517,49.9408369 79.890236,51.1091154 76.9515361,50.430663 C74.5771627,49.8824957 72.1177913,47.9746482 71.7011281,44.9314007 L71.7011281,44.9314007 Z M57.5931024,5.36584324 L57.7107084,5.47589471 L70.79763,20.0405812 C71.3329894,20.5967737 71.3510509,21.3989064 70.7403068,22.0828446 L70.6183962,22.2096091 L49.5549863,40.9569226 L49.7978132,43.7116325 C49.7911801,44.0916441 49.6742579,44.4697466 49.4469067,44.7495047 L49.3427091,44.8630988 L40.7996456,52.5337423 C40.2496637,52.9296115 39.4553716,52.9427784 38.8894292,52.4644935 L38.7718232,52.354442 L37.9172393,51.4706627 L16.411376,70.6446844 C15.861394,71.0405536 15.0671019,71.0537205 14.5011595,70.5754356 L14.3835535,70.4653841 L1.29669418,55.9007196 C0.900276986,55.3514445 0.88705615,54.558199 1.36594639,53.9930249 L1.47613773,53.875579 L22.9820011,34.7015573 L22.1274172,33.8177779 C21.731,33.2685028 21.7177791,32.4752573 22.1966694,31.9100831 L22.3068607,31.7926373 L30.8499242,24.1219938 C31.1212184,23.7317917 31.5073556,23.583699 31.90016,23.6737856 L32.0180931,23.707953 L34.7637783,24.1903104 L55.6828859,5.29659444 C56.2328679,4.90072521 57.02716,4.88755835 57.5931024,5.36584324 Z M24.8276385,36.9059503 L4.50003553,55.0877924 L15.5944649,67.4455225 L35.9220679,49.2636804 C34.8168641,48.0482184 32.8055265,45.7926926 30.7193364,43.4568149 L29.6124581,42.2179411 C27.7712337,40.1582207 25.9859435,38.167798 24.8276385,36.9059503 Z M14.958382,55.4501122 L15.075988,55.5601637 L16.3578639,56.8858327 C16.7825966,57.4743418 16.7674355,58.3429189 16.1784203,58.9109733 C15.6284384,59.3068426 14.8341462,59.3200094 14.2682039,58.8417246 L14.1505979,58.7316731 L12.868722,57.406004 C12.4439893,56.817495 12.4591504,55.9489179 13.0481656,55.3808634 C13.5981476,54.9849942 14.3924397,54.9718273 14.958382,55.4501122 Z M20.2627527,50.6200725 L20.3803587,50.730124 L21.6622346,52.0557931 C22.0869673,52.6443021 22.0718062,53.5128792 21.482791,54.0809337 C20.932809,54.4768029 20.1385169,54.4899698 19.5725745,54.0116849 L19.4549686,53.9016334 L18.1730927,52.5759643 C17.74836,51.9874553 17.7635211,51.1188782 18.3525363,50.5508237 C18.9025182,50.1549545 19.6968103,50.1417876 20.2627527,50.6200725 Z M25.7139364,45.7925955 L25.8315424,45.9026469 L27.1134183,47.228316 C27.538151,47.816825 27.5229899,48.6854021 26.9339747,49.2534566 C26.3839927,49.6493258 25.5897006,49.6624927 25.0237582,49.1842078 L24.9061523,49.0741563 L23.6242764,47.7484873 C23.1995437,47.1599782 23.2147048,46.2914011 23.80372,45.7233467 C24.3537019,45.3274774 25.147994,45.3143106 25.7139364,45.7925955 Z M32.2531086,26.7530742 L25.3279757,33.0047813 L31.7297743,40.0674257 L38.0630816,34.3864836 C38.652348,33.962338 39.5220725,33.9775191 40.090904,34.5657839 C40.4873212,35.115059 40.500542,35.9083044 40.0216518,36.4734786 L39.9114605,36.5909245 L33.5781532,42.2718666 L39.9799518,49.334511 L47.0466251,43.2291373 L45.98459,29.3087982 L32.2531086,26.7530742 Z M73.7453292,44.1231803 C74.2670713,46.276581 76.0603111,47.6347624 77.8009977,48.0366316 C79.4787431,48.4239696 81.6509763,48.1287816 83.1772802,46.2298753 C81.839648,46.1393783 80.1795709,45.974439 78.4071894,45.7098554 C77.0383108,45.4675417 75.7308629,44.9473738 74.6828637,44.4870609 C74.3759544,44.3453265 74.0696742,44.2008964 73.7453292,44.1231803 Z M56.6438682,8.49829197 L38.3794323,24.834538 L47.6279761,26.5898135 C48.1685199,26.7335401 48.7022591,27.1302472 48.7607364,27.7717579 L48.7658222,27.9129685 L49.4738617,37.1922681 L67.7382976,20.856022 L56.6438682,8.49829197 Z"/>
</svg>
