<svg xmlns="http://www.w3.org/2000/svg" width="104" height="104" viewBox="0 0 104 104">
  <path fill="#5D8009" fill-rule="evenodd" d="M94.7740288,20.7760858 L99.7703503,25.7726122 C100.232795,26.2350755 100.317161,26.9506889 99.9672003,27.5131291 L92.2462234,39.865055 L92.6961731,40.3150232 C93.2023645,40.8212354 93.242984,41.6493288 92.7805396,42.1961701 L45.0858709,99.8576899 C44.8327712,100.167044 44.4671881,100.348279 44.0766237,100.363902 L44.007881,100.363902 C43.6422979,100.363902 43.2767147,100.223288 43.0111124,99.9576828 L20.5920184,77.5376693 C20.3108018,77.2564412 20.1576909,76.8783399 20.1858158,76.4846238 C20.2139375,76.0784045 20.3951684,75.7159262 20.6920072,75.4628561 L20.6919896,75.4628081 L41.3960753,58.3392198 L57.663057,44.8929712 L78.3511445,27.7661832 C78.9135777,27.3037199 79.7260309,27.344341 80.2322143,27.8505532 L80.682164,28.3005213 L93.0335834,20.5792277 C93.5960245,20.2292525 94.3116005,20.3136225 94.7740288,20.7760858 Z M47.0397645,90.4517475 L42.2684578,95.2232498 L43.9213931,96.8793726 L48.2458697,91.6579021 L47.0397645,90.4517475 Z M43.3026622,86.7176117 L38.5313556,91.489114 L40.2873993,93.2452298 L45.0587059,88.4737274 L43.3026622,86.7176117 Z M39.5530813,82.9834759 L34.7817747,87.7549783 L36.5378184,89.511094 L41.3091251,84.7395917 L39.5530813,82.9834759 Z M79.1514551,30.7555716 L60.6255259,46.0824871 L69.4965343,54.9538593 C70.0433452,55.5006926 70.0433452,56.385038 69.4965343,56.9318794 L54.6453943,71.7836284 C54.3641778,72.0648565 54.0142169,72.1898477 53.6486258,72.1898477 C53.2830346,72.1898477 52.9330817,72.0492336 52.6518572,71.7836284 L42.1810276,61.3123694 L31.0510717,70.5213178 L36.7910701,76.2615516 L44.2589553,83.7297431 L49.9989537,89.4699769 L89.8041044,41.4077779 L79.1514551,30.7555716 Z M35.8190987,79.2493401 L31.0477921,84.0208425 L32.8038358,85.7769582 L37.5751424,81.0054559 L35.8190987,79.2493401 Z M32.0851161,75.5027253 L27.3138094,80.2742276 L29.0698531,82.0303434 L33.8411598,77.258841 L32.0851161,75.5027253 Z M28.8886734,72.3190305 L23.667417,76.6436845 L25.3234719,78.2966876 L30.0947786,73.5251852 L28.8886734,72.3190305 Z M58.4629676,47.8671608 L44.3709428,59.5167364 L53.6635041,68.8096789 L66.5340654,55.9385896 L58.4629676,47.8671608 Z M77.2699095,4.66387234 C80.8093342,3.01401902 85.0157373,4.54502454 86.6697358,8.0851293 C88.3191479,11.6275133 86.7884737,15.8330061 83.2492192,17.4829214 L83.2492192,17.4829214 L37.4447912,38.8330183 L24.2821954,57.4532117 L23.9423189,57.6116539 C22.0605042,58.3261592 19.9774325,58.3015658 18.1122255,57.5436844 C14.9616549,56.3969705 10.9577366,53.1941201 7.19776746,45.1331179 C4.05921934,38.404078 3.22590235,32.909024 4.72030069,28.8031983 C5.32522487,26.8828791 6.64325476,25.2671803 8.39914375,24.2886224 L8.39914375,24.2886224 L8.40246614,24.2898317 L8.74234269,24.1313894 L31.46762,26.0186961 Z M9.32865582,27.0162243 C7.8959561,28.1612405 7.01741544,29.8616855 6.91611088,31.6907393 L6.91611088,31.6907393 L18.9467073,32.0179316 L18.8696566,34.845163 L6.88847573,34.5171768 C6.99670538,35.6362539 7.1970073,36.7399192 7.4873734,37.823686 L7.4873734,37.823686 L7.4885827,37.8203634 L14.8133213,36.976484 L15.1370816,39.7879011 L8.36999316,40.5676925 C8.75399689,41.6216898 9.19812256,42.7275208 9.76245339,43.9373903 C10.3267842,45.1472598 10.8887311,46.198243 11.4461475,47.168568 L11.4461475,47.168568 L16.3934719,42.4873823 L18.3396418,44.5424711 L12.9847586,49.609526 C13.6285753,50.5284943 14.3454945,51.3913816 15.1334433,52.1935618 L15.131,52.191 L22.5801527,42.8060028 L24.7960767,44.5643046 L17.3169902,53.9891952 C18.7836461,55.0872895 20.6512513,55.5074979 22.4484351,55.1496376 L22.4484351,55.1496376 L31.1188661,42.8845469 L24.2965771,28.2582336 Z M27.5416017,28.5332738 L30.2680825,34.3785792 L32.9978805,40.225092 L34.8756091,37.5678627 L30.7880251,28.8044866 L27.5416017,28.5332738 Z M85.2854894,28.7776316 L82.7451334,30.3650393 L90.2130186,37.830111 L91.7972416,35.2896508 L85.2854894,28.7776316 Z M81.7132086,7.08352793 C80.6520862,6.70106689 79.4851562,6.75410276 78.4655265,7.22942956 L78.4655265,7.22942956 L78.4667358,7.22610704 L33.6030767,28.1404646 L37.1897427,35.8299221 L82.0521925,14.918887 C83.0718106,14.4435656 83.8625437,13.5839811 84.251561,12.5255048 C84.636048,11.4691355 84.5840482,10.299075 84.1085007,9.27954826 C83.6329617,8.26002458 82.7698065,7.46809814 81.7132086,7.08352793 Z M93.5814421,23.5688802 L87.7133781,27.231101 L93.3283504,32.8463037 L96.9904211,26.9779989 L93.5814421,23.5688802 Z" transform="rotate(-90 52.091 52.182)"/>
</svg>
