<svg xmlns="http://www.w3.org/2000/svg" width="256" height="256"><path fill="#93C90E" fill-rule="evenodd" d="M195 111.197c0-1.213-.957-2.197-2.137-2.197-5.716 0-11.33 4.765-18.434 10.798-11.356 9.641-25.487 21.64-47.428 21.64s-36.074-11.999-47.429-21.64C72.467 113.765 66.854 109 61.137 109c-1.18 0-2.137.984-2.137 2.197 0 1.214.957 2.197 2.137 2.197 4.181 0 9.525 4.538 15.714 9.792C88.107 132.743 103.523 156 127.001 156c28.038 0 34.33-19.383 50.149-32.814 6.189-5.254 11.533-9.792 15.713-9.792 1.18 0 2.137-.983 2.137-2.197M59.789 71.531c0 13.294 10.57 24.11 23.565 24.11 12.993 0 23.565-10.816 23.565-24.11 0-13.295-10.572-24.11-23.565-24.11-12.994 0-23.565 10.815-23.565 24.11m87.89 0c0 13.294 10.571 24.11 23.565 24.11 12.994 0 23.565-10.816 23.565-24.11 0-13.295-10.57-24.11-23.565-24.11-12.994 0-23.564 10.815-23.564 24.11m94.537 139.8a44.28 44.28 0 00-9.958-1.115c-14.647 0-27.2 6.968-32.252 16.784-5.052-9.816-17.605-16.784-32.25-16.784-3.406 0-6.74.373-9.96 1.116 4.959-8.341 14.326-14.78 25.72-17.983a59.065 59.065 0 014.752-1.123v-30.2c0-1.343-1.064-2.431-2.376-2.431-1.312 0-2.376 1.088-2.376 2.43v26.316c-9.617 2.506-18.038 7.153-24.127 13.276-10.266 1.414-21.19 2.368-32.09 2.368-10.9 0-21.823-.953-32.088-2.365-6.09-6.124-14.512-10.773-24.131-13.279v-26.315c0-1.343-1.064-2.431-2.376-2.431-1.313 0-2.376 1.088-2.376 2.43v30.201a59.17 59.17 0 014.752 1.123c11.394 3.203 20.76 9.642 25.72 17.983a44.277 44.277 0 00-9.96-1.116c-14.648 0-27.199 6.968-32.25 16.784-5.052-9.816-17.604-16.784-32.252-16.784a44.28 44.28 0 00-9.959 1.116c4.992-8.397 14.455-14.856 25.95-18.037a59.81 59.81 0 013.454-.837V71.531C41.784 48.079 60.432 29 83.354 29c22.921 0 27.429 12.74 41.569 32.707.77 1.087 1.064 2.431 2.376 2.431 1.313 0 1.618-1.335 2.376-2.43C144.254 40.627 148.323 29 171.245 29c22.92 0 41.568 19.08 41.568 42.53v120.922c1.121.237 2.22.513 3.306.81 11.563 3.165 21.086 9.639 26.098 18.07M77.677 71.53c0 3.208 2.542 5.808 5.677 5.808 3.134 0 5.676-2.6 5.676-5.808 0-3.207-2.542-5.807-5.676-5.807-3.135 0-5.677 2.6-5.677 5.807m-8.798 0c0-8.165 6.494-14.809 14.475-14.809s14.474 6.644 14.474 14.81c0 8.165-6.493 14.809-14.474 14.809s-14.475-6.644-14.475-14.81m96.689 0c0 3.208 2.541 5.808 5.676 5.808 3.135 0 5.677-2.6 5.677-5.808 0-3.207-2.542-5.807-5.677-5.807s-5.676 2.6-5.676 5.807m-8.798 0c0-8.165 6.494-14.809 14.474-14.809 7.981 0 14.474 6.644 14.474 14.81 0 8.165-6.493 14.809-14.474 14.809-7.98 0-14.474-6.644-14.474-14.81m6.15 133.317a33.612 33.612 0 00-4.034 4.794 10.457 10.457 0 004.034-4.794m62.947-14.995c-.515.572-1.024 1.171-1.544 1.721 8.909 3.682 16.486 9.069 21.897 15.652 3.321.192 6.588.56 9.78 1.118-6.197-7.933-16.914-14.368-30.133-18.491M37.032 188.72v-75.932c-5-3.02-9.974-4.705-14.524-4.705-1.867 0-3.632.3-5.245.894-13.413 4.935-14.603 29.42-2.599 53.466 5.451 10.919 12.82 20.268 20.563 26.726a69.725 69.725 0 011.805-.449m202.901-26.277c12.005-24.046 10.815-48.531-2.597-53.466-1.614-.593-3.38-.894-5.247-.894-4.55 0-9.524 1.693-14.523 4.712v75.924a76.63 76.63 0 011.798.448c7.745-6.456 15.117-15.802 20.57-26.724M10.485 205.25A113.73 113.73 0 000 206.275c6.391-6.863 17.073-12.536 30.276-16.423-8.044 3.867-14.864 9.123-19.79 15.399"/></svg>