<svg xmlns="http://www.w3.org/2000/svg" width="557" height="770"><path fill="#93C90E" fill-rule="evenodd" opacity=".32" d="M173.394.755l27.161 42.07 37.654 75.305 13.674 58.53 4.188 98.075.503.516 25.249-88.441 25.726-65.501 25.798-43.639 42.517-46.104 3.11-1.919 1.357 1.069-6.34 11.526-9.78 21.702-18.081 30.691-.462 1.105-33.693 101.956-20.021 47.921-30.291 60.244-2.003 21.362 124.449-212.989 31.47-33.314 6.291-2.088.507 6.371-47.712 95.572-56.892 91.638-43.84 50.331-12.947 24.681 3.046 20.654 4.494-4.972 14.502-22.354L459.965 133.23l2.834-.896-1.531 4.418-57.503 99.913-59.748 77.522-74.102 59.863-3.184 3.807 4.362 25.371L436.748 249.22l64.075-50.698-1.954 5.615-40.923 59.563-23.644 26.788-35.809 34.35-73.422 57.219-44.699 27.628-5.763 8.007 2.167 11.656 4.997 1.416 168.308-121.86 78.988-46.118 6.121-2.836-21.308 30.996-90.628 76.568-87.273 55.289-46.546 18.457-8.419 11.693-.081 8.962 2.28 14.846 21.926-19.591 104.535-69.383 120.9-58.699 17.915-6.802 6.13.467-2.232 5.6-19.074 17.311-47.982 35.499-63.134 36.336L297.1 476.345l-9.633 20.744 6.885-2.512 126.473-58.068 77.356-28.409 50.78-13.001 7.223.527.543 1.615-12.782 11.282-114.6 64.003-91.965 25.479-43.587 6.366-4.85 2.854 2.918 7.298 5.375 2.292 195.766-20.007 36.756 4.356 4.459 3.182-3.518 4.373-60.308 14.834-69.463 6.781-56.149.608-52.546-4.491-.873 1.518 3.254 3.465 66.13 20.726 85.304 42.51 4.643 3.588-.835 1.607-82.645-16.673-75.064-41.751-.048 6.767 6.184 88.497-1.139 9.371 1.951 94.202-1.587 24.395-2.17 3.772-12.771 1.31-2.672-23.147 5.511-106.937-2.546-87.617-2.619-20.025.041-9.699-6.908 2.795-65.286 47.015-43.662 26.988-41.504 11.881-11.7 1.356-1.606-1.782 58.976-45.359 44.048-27.221 57.783-22.12 2.968-.337 5.962-4.595-5.306-9.17-12.816.972-49.55 15.662-70.318 12.178-78.937 1.322-26.649-3.292-.802-.892 18.447-10.452 61.038-15.993 74.759-11.811 87.896 1.738-2.212-15.104-67.791-3.231-64.541-8.512-58.142-12.115-76.578-9.508-6.941-1.431-.183-2.205 18.787-6.271 83.906-4.878 44.65 2.527 66.344 15.138 60.621 20.894-8.175-32.117-5.893-4.413-44.104-3.449-54.541-9.612-132.006-35.398-28.421-10.07.295-1.852 4.26-1.527 88.891.701 51.105 8.965 54.672 17.085 62.792 27.542-2.708-19.709-3.91-14.87-5.138-3.485-15.215-1.457-79.586-33.233-129.991-37.004-3.792-3.212 4.011-2.987 11.879-1.066 91.495 10.888 76.83 25.618 48.837 30.881-2.86-26.613-7.325-12.115-81.068-44.271-119.194-50.229-16.6-10.231.622-1.658 5.082-.61 53.503 5.948 87.132 35.574 69.113 51.099 4.605 2.702 2.002-2.301-185.273-179.14.612-1.65 6.456.52 25.434 13.168 40.912 25.874 48.919 45.563 26.169 29.38 12.223 16.101.338-.387L112 70.516l10.603 5.252 37.525 41.618 37.967 56.436 39.104 81.812 7.017 21.54-.259-7.815-70.84-257.662-1.857-10.026z"/></svg>