<svg xmlns="http://www.w3.org/2000/svg" width="386" height="990"><path fill="#93C90E" fill-rule="evenodd" d="M221.687 0l-5.712 1.939-75.066 67.011-19.517 25.56-11.037 24.851-16.04 24.307-8.543 9.202-24.921 39.592-10.86 20.98-39.065 121.68 2.733 4.469 23.347 4.615 40.64 13.542 43.175 18.52 32.94 17.636 4.46 3.148-55.5-20.281L63.34 365.49l-48.377-8.768-4.068 1.73-4.124 19.28L0 436.053l3.288 50.552 5.571 30.331 6.595 25.002 59.474 1.326 73.08 19.315 8.814 7.919-90.537-14.584-42.243 1.81-9.69 9.236-1.602 73.58 6.307 9.882 98.1 2.696-5.648 4.746-94.02 6.474 1.673 28.395 8.492 27.008 22.792 44.776 18.006 21.239 36.674 16.004 48.357 16.209 33.444 8.506.654 2.76 13.03 145.545 12.978 13.307 7.838.275 4.51 1.639-2.279-9.861-22.392-150.705 4.391-4.894 9.032-.723 52.086-9.537 55.154-37.49 10.234-13.41 7.288-13.303-6.421-15.155-12.523-4.193-75.164-10.352 11.469-5.755 92.3 11.344 16.64-51.401 1.981-17.646 7.25-34.232-.98-4.397-12.364-6.687-65.291-15.23-64.807.538 7.924-3.34 87.106-13.594 7.579-.315 34.215 4.095 7.119-7.14 7.519-22.955L386 508.624v-26.52l-.99-3.883-.61-30.257-13.36-100.28-5.257-7.227-19.23-3.35-31.232.785-4.872-.493-9.207-2.09-49.735.193-.41-1.609 16.043-4.572 37.92-6.507 47.515-.494 19.195-3.256 1.752-15.238.508-37.34-1.555-14.733.286-11.648-2.316-20.619-13.83-31.999-22.573-36.854-5.278-6.772-44.043 20.623-6.266 1.093 2.944-3.87 34.045-25.83 3.263-9.448-12.934-22.293-33.388-41.125-10.835-19.442-18.793-25.003L229.775 6.04 221.687 0zM74.855 197.305l15.657-1.385 69.824 51.557-2.94 3.294-82.541-53.466zM277.5 265.087l41.923-21.252 14.62-3.128 12.304 9.371-10.727-1.012-13.435 2.137-50.633 20.274 5.948-6.39zm-172.377 68.716L65.156 320.34l-25.008-7.76 15.94-3.33 59.47 22.268 2.057 11.179-12.49-8.895zM96.56 507.387l-58.262-7.785-9.809-2.804-1.132-6.299 66.655 11.568 54.888 17.264-10.309 1.939-42.03-13.883zm148.745 39.793l80.355-26.946 35.13-6.98-11.401 11.427-24.69 3.308-81.445 25.401 2.05-6.21z" opacity=".32"/></svg>