<svg xmlns="http://www.w3.org/2000/svg" width="333" height="64"><path fill="#93C90E" fill-rule="evenodd" d="M48.75 27.8c0-.304-.24-.55-.534-.55-1.43 0-2.833 1.191-4.609 2.7-2.839 2.41-6.372 5.41-11.857 5.41-5.485 0-9.018-3-11.857-5.41-1.776-1.509-3.18-2.7-4.609-2.7a.542.542 0 00-.534.55c0 .303.24.549.534.549 1.045 0 2.381 1.134 3.929 2.448C22.027 33.186 25.88 39 31.75 39c7.01 0 8.583-4.846 12.537-8.203 1.548-1.314 2.884-2.448 3.929-2.448a.542.542 0 00.534-.55m-33.803-9.916c0 3.323 2.643 6.027 5.891 6.027 3.249 0 5.892-2.704 5.892-6.027 0-3.324-2.643-6.028-5.892-6.028-3.248 0-5.89 2.704-5.89 6.028m21.972 0c0 3.323 2.643 6.027 5.891 6.027 3.249 0 5.891-2.704 5.891-6.027 0-3.324-2.642-6.028-5.89-6.028-3.25 0-5.892 2.704-5.892 6.028m23.634 34.95a11.07 11.07 0 00-2.49-.28c-3.66 0-6.8 1.743-8.062 4.197-1.263-2.454-4.401-4.196-8.063-4.196-.851 0-1.685.093-2.49.279 1.24-2.085 3.582-3.695 6.43-4.496.387-.108.784-.202 1.188-.28v-7.551a.601.601 0 00-.594-.607.601.601 0 00-.594.607v6.58c-2.404.626-4.51 1.787-6.032 3.318-2.566.354-5.297.592-8.022.592-2.725 0-5.456-.238-8.022-.591-1.523-1.53-3.628-2.693-6.033-3.32v-6.579a.6.6 0 00-.594-.607.6.6 0 00-.594.607v7.55c.405.079.801.173 1.188.281 2.849.8 5.19 2.41 6.43 4.496a11.07 11.07 0 00-2.49-.28c-3.662 0-6.8 1.743-8.062 4.197-1.263-2.454-4.401-4.196-8.063-4.196-.852 0-1.685.093-2.49.279 1.248-2.1 3.614-3.714 6.488-4.51.283-.077.57-.146.863-.208V17.883c0-5.863 4.662-10.633 10.392-10.633 5.73 0 6.858 3.185 10.393 8.177.192.272.266.607.594.607.328 0 .404-.333.594-.607 3.644-5.27 4.662-8.177 10.392-8.177 5.73 0 10.392 4.77 10.392 10.633v30.23c.28.06.555.128.827.202 2.89.792 5.271 2.41 6.524 4.518M19.42 17.883c0 .801.636 1.452 1.42 1.452.783 0 1.418-.65 1.418-1.452 0-.802-.635-1.452-1.419-1.452-.783 0-1.419.65-1.419 1.452m-2.2 0c0-2.042 1.624-3.703 3.62-3.703 1.995 0 3.618 1.661 3.618 3.703 0 2.041-1.623 3.702-3.619 3.702-1.995 0-3.618-1.661-3.618-3.702m24.172 0c0 .801.635 1.452 1.42 1.452.783 0 1.418-.65 1.418-1.452 0-.802-.635-1.452-1.419-1.452s-1.42.65-1.42 1.452m-2.198 0c0-2.042 1.623-3.703 3.618-3.703 1.995 0 3.619 1.661 3.619 3.703 0 2.041-1.624 3.702-3.619 3.702s-3.618-1.661-3.618-3.702m1.537 33.329a8.403 8.403 0 00-1.008 1.198c.445-.283.8-.7 1.008-1.198m15.737-3.75c-.13.144-.256.294-.386.431 2.227.92 4.121 2.267 5.474 3.913.83.048 1.647.14 2.445.28-1.55-1.983-4.229-3.592-7.533-4.623m-47.21-.283V28.197c-1.25-.755-2.493-1.176-3.631-1.176-.467 0-.908.075-1.311.223C.963 28.478.665 34.6 3.666 40.611c1.363 2.73 3.205 5.067 5.14 6.681.15-.039.3-.076.452-.112m50.725-6.57c3.002-6.01 2.704-12.132-.65-13.366a3.789 3.789 0 00-1.31-.223c-1.138 0-2.382.423-3.632 1.178v18.98c.152.036.301.074.45.113 1.936-1.614 3.78-3.95 5.142-6.681M2.622 51.313c-.89.047-1.766.13-2.622.256 1.598-1.716 4.268-3.134 7.569-4.106-2.01.967-3.716 2.28-4.947 3.85M83.916 52V40.686h9.945c2.553-.038 4.782-.429 6.688-1.172 1.905-.743 3.496-1.762 4.772-3.057a12.756 12.756 0 002.886-4.543c.648-1.733.972-3.59.972-5.571 0-1.943-.314-3.781-.943-5.514a12.704 12.704 0 00-2.858-4.572c-1.276-1.314-2.877-2.352-4.8-3.114C98.652 12.38 96.413 12 93.86 12H75v40h8.916zm9.945-19.486h-9.945V20.457h9.945c2.134 0 3.734.61 4.801 1.829 1.067 1.219 1.6 2.628 1.6 4.228 0 1.6-.523 3-1.571 4.2-1.048 1.2-2.658 1.8-4.83 1.8zM147.56 52v-8.229h-21.72v-8.057h19.72v-7.828h-19.72V20.17h20.92V12h-29.664v40h30.464zm18.09 0V40.686h9.945c2.553-.038 4.782-.429 6.687-1.172 1.905-.743 3.496-1.762 4.772-3.057a12.756 12.756 0 002.887-4.543c.648-1.733.971-3.59.971-5.571 0-1.943-.314-3.781-.943-5.514a12.704 12.704 0 00-2.857-4.572c-1.277-1.314-2.877-2.352-4.802-3.114-1.924-.762-4.162-1.143-6.715-1.143h-18.862v40h8.917zm9.945-19.486h-9.945V20.457h9.945c2.134 0 3.734.61 4.8 1.829 1.068 1.219 1.601 2.628 1.601 4.228 0 1.6-.524 3-1.572 4.2-1.048 1.2-2.657 1.8-4.83 1.8zM207.744 52V40.686h9.945c2.553-.038 4.782-.429 6.687-1.172 1.905-.743 3.496-1.762 4.772-3.057a12.756 12.756 0 002.887-4.543c.648-1.733.971-3.59.971-5.571 0-1.943-.314-3.781-.943-5.514a12.704 12.704 0 00-2.857-4.572c-1.277-1.314-2.877-2.352-4.801-3.114-1.925-.762-4.163-1.143-6.716-1.143h-18.862v40h8.917zm9.945-19.486h-9.945V20.457h9.945c2.134 0 3.734.61 4.8 1.829 1.068 1.219 1.601 2.628 1.601 4.228 0 1.6-.524 3-1.572 4.2-1.047 1.2-2.657 1.8-4.83 1.8zM271.386 52v-8.229h-21.719v-8.057h19.719v-7.828h-19.719V20.17h20.92V12h-29.665v40h30.464zm18.09 0V38.857h6.459L306.165 52h9.888v-.686L305.08 38.057c1.905-.686 3.457-1.486 4.658-2.4 1.2-.914 2.143-1.905 2.829-2.971a9.955 9.955 0 001.4-3.429 18.87 18.87 0 00.372-3.771 13.85 13.85 0 00-.943-5.057 12.387 12.387 0 00-2.83-4.315c-1.257-1.257-2.81-2.257-4.658-3-1.848-.743-3.972-1.114-6.373-1.114H280.56v40h8.916zm10.174-20.686h-10.174V19.657h10.06c1.028 0 1.924.19 2.686.572.762.38 1.381.857 1.857 1.428a6.08 6.08 0 011.086 1.943c.248.724.372 1.429.372 2.114 0 .61-.115 1.248-.343 1.915a5.526 5.526 0 01-1.058 1.828c-.476.553-1.085 1-1.829 1.343-.743.343-1.628.514-2.657.514zM333 52V12h-8.86v40H333z"/></svg>