<svg xmlns="http://www.w3.org/2000/svg" width="24" height="24"><path fill="#1A1A1A" fill-opacity=".9" fill-rule="evenodd" d="M12 4c4.411 0 8 3.589 8 8 0 .543-.055 1.086-.163 1.612-.344 1.64-1.939 2.685-3.555 2.345a2.973 2.973 0 01-1.64-.955A3.984 3.984 0 0112 16c-2.206 0-4-1.794-4-4s1.794-4 4-4a4.004 4.004 0 013.923 4.782l-.008.033a.994.994 0 00.143.752.998.998 0 00.632.432 1.008 1.008 0 001.184-.775A6.006 6.006 0 0012 6c-3.309 0-6 2.69-6 6a6.006 6.006 0 008.064 5.636 1 1 0 11.685 1.88 7.983 7.983 0 01-2.75.484H12c-4.411 0-8-3.589-8-8s3.589-8 8-8zm0 6c-1.103 0-2 .897-2 2s.897 2 2 2 2-.897 2-2-.897-2-2-2z"/></svg>