<svg xmlns="http://www.w3.org/2000/svg" width="24" height="24"><path fill="#1A1A1A" fill-opacity=".9" fill-rule="evenodd" d="M12.08 6.026l11.208 3.737a.25.25 0 010 .474L22 10.666V15a1 1 0 01-2 0v-3.667L18 12v2c0 2.21-2.686 4-6 4s-6-1.79-6-4v-2L.712 10.237a.25.25 0 010-.474L11.92 6.026a.25.25 0 01.158 0zm3.919 6.64l-3.92 1.308a.25.25 0 01-.158 0l-3.922-1.307L8 14c0 .893 1.66 2 4 2s4-1.107 4-2l-.001-1.333zM12 8.007l-.04.007-5.604 1.868a.125.125 0 00-.036.219l.036.019 5.604 1.868.04.006.04-.006 5.604-1.868a.125.125 0 00.036-.219l-.036-.019-5.604-1.868-.04-.006z"/></svg>