<svg xmlns="http://www.w3.org/2000/svg" width="24" height="24"><path fill="#1A1A1A" fill-opacity=".9" fill-rule="evenodd" d="M12 3c2.761 0 5 1.486 5 4.8 0 1.193-.29 2.461-.79 3.595 1.985.982 3.29 2.773 3.29 5.355 0 1.431-.305 2.918-1 4.25l-2.5.001c-.167 0 1-2.723 1-4.112 0-1.7-.848-2.78-2.144-3.36l-.043.047C14.012 14.446 13.043 15 12 15c-1.062 0-2.046-.574-2.855-1.47C7.848 14.108 7 15.19 7 16.89 7 18.278 8.156 21 8 21H5.5c-.695-1.333-1-2.82-1-4.251 0-2.582 1.305-4.373 3.29-5.357C7.29 10.26 7 8.993 7 7.8 7 4.486 9.239 3 12 3zm0 2.5c-1.38 0-2.5.567-2.5 2.5s1.12 4.5 2.5 4.5 2.5-2.567 2.5-4.5c0-1.933-1.12-2.5-2.5-2.5z"/></svg>