<svg xmlns="http://www.w3.org/2000/svg" width="32" height="32"><path fill="#1A1A1A" fill-opacity=".9" fill-rule="evenodd" d="M9.399 13.101V27H4.336V13.101h5.063zM4 7.764c0-.38.075-.736.224-1.07.149-.335.354-.628.615-.881s.564-.452.91-.596A2.83 2.83 0 016.852 5c.392 0 .76.072 1.105.217a2.839 2.839 0 011.525 1.476 2.6 2.6 0 01.223 1.07c0 .38-.074.737-.223 1.07-.15.335-.355.628-.616.881a2.908 2.908 0 01-.909.596 2.83 2.83 0 01-1.105.217 2.83 2.83 0 01-1.105-.217 2.908 2.908 0 01-.909-.596 2.808 2.808 0 01-.615-.88A2.595 2.595 0 014 7.764zm8.867 5.337h5.063v1.761c.69-.813 1.39-1.36 2.098-1.64.709-.28 1.538-.419 2.49-.419 1.006 0 1.869.158 2.587.474a5.147 5.147 0 011.832 1.341c.41.47.69.994.84 1.572.148.578.223 1.237.223 1.977V27h-5.063v-7.017c0-.687-.051-1.242-.154-1.666-.102-.425-.284-.764-.545-1.017a1.928 1.928 0 00-.755-.46 2.896 2.896 0 00-.896-.136c-.857 0-1.515.249-1.972.746-.456.496-.685 1.205-.685 2.126V27h-5.063V13.101z"/></svg>