<svg xmlns="http://www.w3.org/2000/svg" width="24" height="24"><path fill="#1A1A1A" fill-opacity=".9" fill-rule="evenodd" d="M4.814 8.88c1.362-1.39 2.043-1.022 2.98.328.85 1.228.595 2.046 0 2.578-.384.327-1.363.9-.852 1.76.724 1.227 2.129 2.7 3.363 3.478.851.531 1.532-.369 1.915-.696.596-.573 1.447-.736 2.64.164 1.32.982 1.66 1.677.127 2.905C9.88 22.384 1.323 13.546 4.814 8.88zM11 4a9 9 0 019 9 1 1 0 01-2 0 7 7 0 00-7-7 1 1 0 010-2zm0 4a5 5 0 015 5 1 1 0 01-2 0 3 3 0 00-3-3 1 1 0 010-2z"/></svg>