<svg xmlns="http://www.w3.org/2000/svg" width="1244" height="601"><path fill="none" stroke="#83B30C" stroke-linecap="round" stroke-linejoin="round" stroke-width="2" d="M952 48h-13m40 12h-72m58 12h-84m217 12h-27m-37 0H867m-46 0h15m8 0h17m-19 12h299m-328 0h22m-146 0h-27m54 12h-77m578 0H843m-7 0h-73m-66 12h-71m111 0h506m-537 0h16m-18 12h-37m48 0h487m-585 0h39m494 12H655m-54 0h41m551 0h-38m-1 12h-9m-542 0h43m22 0h453m-498 12h16m-14 6h11m435-6H657m495 0h-23m-512 12h-5m444 0H647m500 0h-22m15 6h-15m11 6h-9m-53 0H597m-15 12h492m-5 12H719m-7 0H573m63 12h45m375 0H717m318 12H727m-150-12h48m23 12h32m12 0h16m-70 0h-13m-37 0h-37m106 12h5m-81 0h-32m482 0h-14m-23 0H676m357 12h-11m-315 0h293m-380 0h-60m76 12h-87m113 0h-9m353 0H703m-8 12H544m159 0h45m259 0H759m-48 12h45m-54 0H531m469 0H782m-76 12H524m459 0H822m-104 0h70m-76 12H523m202 0h59m168 0h-42m-30 0h-45m124 12h-49m-179 0h32m-31 6h20m-33-6H524m314 0h27m-134 12H523m3-323H350m50-12h-24m43 0h-11m100 0h-82m60-12h-35M246 24h20m-14 12h31m-24 6h14m242-5H341m173 12H340m32 12h140M384 73h126M388 85h117M143 96h-15m135 0h-18m149 1h108M22 96h46m328 13h85m-199-1h15m-45 0h23m-37 0h7m-31 0h-10M1 108h182m211 13h64M3 120h284M19 132h256m164 1h-39m34 12h-25M3 144h254m74 0h-24M88 156h163m107 0h-6m-11 0h-33m-256 0h6m-12 0h6m-38 0h31m70 12h150m102 0h-53m-286 0h7m-24 12h8m359 0h-73m-13 0H124m183 12h79m-251 0h162m-150 12h200m-200 12h207m-4 12h8m-211 0h194m-193 12h186m-183 12h168m-160 12h156m-142 12h128m-112 12h62m-71 0h4m15 12h44m-54 0h4m103 0h5m-90 12h29m25 12h12m-62 0h30m-4 12h41m-6 12h16m10 12h7m-23 0h7m21 0h54m-56 12h76m-79 12h97m6 12h10m-124 0h104m-105 12h154m-146 12h155m-149 12h141m-133 12h127m-112 12h110m-108 12h102m-103 12h82m-85 12h80m-82 12h70m-71 12h65m-69 12h57m-58 12h40m-39 12h30m-35 12h27m-26 12h26m-24 12h18m-11 12h5m628-252h-27m-5 0h-5m4 12h-5m27 0h-4m-105-12h19m-14 12h10m-102 0H532m54 12h-39m205 0H599m341 0h-8m12 12h-6m-196 0H615m113 12H612m106 12h-97m459 24h-3m-357-12h-94m422 12h8m-333 0h-94m97 12H625m463 0h-12m-21 0h-36m-308 12h-88m383 0h87m-389 12h-76m476 0H985m128 12H977m-275 0h-70m3 12h60m423 0H980m138 6H983m134 6H985m-341 0h42m-40 12h24m326 0h-12m73 0h-3m56 0h-48M970 54h-38m44 12h-95m152 12H863m11 12h235m-269 0h30m-57 0h19m-135 12h-52m523 0H841m365 0h-27m-343 0h-43m-69 12h-92m211 0h384m-479 0h85m-99 0h5m-37 12h-32m51 0h489m13 0h16m-615 0h33m549 12H656m-46 0h37m534 12h-28m-554 0h43m16 0h468m-504 12h20m-41 0h12m462 0H664m485 0h-12m-519 12h-9m452 0H655m494 0h-24m-52 12H610m-20 12h483m-508 12h507m-9 12H713m-8 0h-8m344 12H725m-148-12h108m-40 12h34m-49 0h-11m-27 0h-41m101 12h9m-25 0h9m-64 0h-30m480 0h-23m-9 0H673m360 12h-11m-342 0h324m-347 0h5m-44 12h-62m19-12h-24m66 0h-13m402 12H706m301 12H547m160 12h45m-54 0H535m469 0H767m-60 12H528m464 0H817m-103 0h65m-67 12H522m199 0h67m170 0h-55m-18 0h-50m118 12h-43m-182 0h47m-57 0H525m311 0h37m-148 12H520m18-323H367M503 7h-72M252 18h8m-16 12h34m237 1H354m153 12H327m15 12h164M379 67h134M386 79h117M257 90h-10m145 1h114M31 90h9m363 13h91m-211-1h12m-43 0h15m-157 0h51m-149 0h85m296 13h71M9 114h289M1 126h273m170 1h-45m35 12h-30m28 12h-12M8 138h257M70 150h182m89 0h-33M6 150h59m40 12h151m107 0h-55m-277 0h13m-25 12h8m341 0h-54m-39 0H121m185 12h76m-257 0h171m-160 12h241m-225 12h204m-207 12h211m-214 12h188m-187 12h176m-168 12h162m-150 12h140m-120 12h110m-121 0h6m14 12h45m-60 0h8m105 0h8m-11-6h8m-36 0h8m-67 18h37m-50 0h5m71 12h11m-64 0h28m-14 12h45m-13 12h32m-10 12h8m29 0h24m-36 12h70m-79 0h5m8 12h92m-102 12h105m-104 12h141m-143 12h160m-151 12h149m-143 12h133m-121 12h118m-109 12h106m-107 12h89m-90 12h78m-80 12h75m-76 12h67m-71 12h54m-57 12h40m-37 12h28m-29 12h27m-32 12h31m-32 12h21m-13 12h9m626-252h-40m7 12h-4m35 0h-17m-103-12h21m-16 12h15m-126 0H529m231 0h-15m11 12H538m395 0h-5m16 12h-11m-186 0H615m119 12H615m108 12H617m104 12h-96m98 12h-94m97 12h-99m456 0h-8m-19 0h-20m-318 12h-95m451 0h16m-79 0h53m-360 12h-78m473 0H998m110 12H979m-274 0h-73m2 12h63m419 0H980m-341 12h51m-44 12h35m335 0h-30m125 0h-61m54 18h-33m35-6h-39"/></svg>